<svg height="512" viewBox="0 0 46 58" width="512" xmlns="http://www.w3.org/2000/svg"><g id="Page-1" fill="none" fill-rule="evenodd"><g id="001---Flying-Bot" fill-rule="nonzero" transform="translate(-1)"><path id="Shape" d="m41 22-2-5 2-5c2.7614237 0 5 2.2385763 5 5 0 1.3260824-.5267842 2.597852-1.4644661 3.5355339s-2.2094515 1.4644661-3.5355339 1.4644661z" fill="#2980b9"/><path id="Shape" d="m7 22 2-5-2-5c-2.76142375 0-5 2.2385763-5 5s2.23857625 5 5 5z" fill="#2980b9"/><path id="Shape" d="m29.42 50.91-.64 3.17c-.4543375 2.279759-2.4554089 3.9213847-4.78 3.9213847s-4.3256625-1.6416257-4.78-3.9213847l-.64-3.17z" fill="#464f5d"/><path id="Shape" d="m7 39.811v10.189c-1.15499064-.9752749-2.84500936-.9752749-4 0v-11.23c.47370301.6330506 1.20972777 1.0161515 2 1.041z" fill="#a4a4a3"/><path id="Shape" d="m45 38.77v11.23c-1.1549906-.9752749-2.8450094-.9752749-4 0v-10.189h2c.7902722-.0248485 1.526297-.4079494 2-1.041z" fill="#a4a4a3"/><path id="Shape" d="m19 0h10c6.627417 0 12 5.372583 12 12v12c0 3.3137085-2.6862915 6-6 6h-22c-3.3137085 0-6-2.6862915-6-6v-12c0-6.627417 5.372583-12 12-12z" fill="#3b96d2"/><rect id="Rectangle-path" fill="#65dcb8" height="16" rx="7" width="26" x="11" y="9"/><path id="Shape" d="m21 19c-.5522847 0-1-.4477153-1-1 0-1.1045695-.8954305-2-2-2s-2 .8954305-2 2c0 .5522847-.4477153 1-1 1s-1-.4477153-1-1c0-2.209139 1.790861-4 4-4s4 1.790861 4 4c0 .5522847-.4477153 1-1 1z" fill="#464f5d"/><path id="Shape" d="m33 19c-.5522847 0-1-.4477153-1-1 0-1.1045695-.8954305-2-2-2s-2 .8954305-2 2c0 .5522847-.4477153 1-1 1s-1-.4477153-1-1c0-2.209139 1.790861-4 4-4s4 1.790861 4 4c0 .5522847-.4477153 1-1 1z" fill="#464f5d"/><path id="Shape" d="m13.83 47.61c-1.7497764-1.8428227-2.9633862-4.1282816-3.51-6.61-.2133505-.9857262-.32062769-1.9914495-.32-3v-2c-.00503816-1.0546903.2748116-2.0911709.81-3 1.0684285-1.8567699 3.0477738-3.0009001 5.19-3h16c2.1422262-.0009001 4.1215715 1.1432301 5.19 3 .5351884.9088291.8150382 1.9453097.81 3v2c.0006277 1.0085505-.1066495 2.0142738-.32 3-.5466138 2.4817184-1.7602236 4.7671773-3.51 6.61" fill="#2980b9"/><path id="Shape" d="m34.17 47.61c-2.6390817 2.8044277-6.3190823 4.3946121-10.17 4.3946121s-7.5309183-1.5901844-10.17-4.3946121c3.267427-1.1366096 6.7112712-1.6818002 10.17-1.61 3.4587288-.0718002 6.902573.4733904 10.17 1.61z" fill="#285680"/><path id="Shape" d="m22.6 40.364-2.163-2.464c-.4525639-.5164728-.5608011-1.2500837-.2766747-1.875248s.9079749-1.0260549 1.5946747-1.024752h4.49c.6866998-.0013029 1.3105483.3995877 1.5946747 1.024752s.1758892 1.3587752-.2766747 1.875248l-2.163 2.464c-.3540672.4022959-.8640844.6328373-1.4.6328373s-1.0459328-.2305414-1.4-.6328373z" fill="#65dcb8"/><g fill="#285680"><path id="Shape" d="m10 38c-.00062769 1.0085505.1066495 2.0142738.32 3h-5.32c-1.65434893-.0060328-2.99396717-1.3456511-3-3v-1c0-2.209139 1.790861-4 4-4h4.81c-.5351884.9088291-.81503816 1.9453097-.81 3z"/><path id="Shape" d="m9 52c.00447413 1.8163968-1.21255202 3.4089611-2.96636039 3.8816911-1.75380836.47273-3.60635171-.2924476-4.51535998-1.8650319s-.64743924-3.5597923.63754424-4.8435893c1.28498347-1.2837971 3.27243216-1.5435304 4.84417613-.6330699 1.23633616.713798 1.9985357 2.0324032 2 3.46z"/><path id="Shape" d="m46 37v1c-.0060328 1.6543489-1.3456511 2.9939672-3 3h-5.32c.2133505-.9857262.3206277-1.9914495.32-3v-2c.0050382-1.0546903-.2748116-2.0911709-.81-3h4.81c2.209139 0 4 1.790861 4 4z"/><path id="Shape" d="m47 52c.0044741 1.8163968-1.212552 3.4089611-2.9663604 3.8816911s-3.6063517-.2924476-4.51536-1.8650319c-.9090082-1.5725843-.6474392-3.5597923.6375443-4.8435893 1.2849834-1.2837971 3.2724321-1.5435304 4.8441761-.6330699 1.2363362.713798 1.9985357 2.0324032 2 3.46z"/></g><path id="Shape" d="m30 26h-12c-4.4162219-.0049599-7.9950401-3.5837781-8-8v-2c.0049599-4.4162219 3.5837781-7.99504012 8-8h12c4.4162219.00495988 7.9950401 3.5837781 8 8v2c-.0049599 4.4162219-3.5837781 7.9950401-8 8zm-12-16c-3.3123376.0033074-5.9966926 2.6876624-6 6v2c.0033074 3.3123376 2.6876624 5.9966926 6 6h12c3.3123376-.0033074 5.9966926-2.6876624 6-6v-2c-.0033074-3.3123376-2.6876624-5.9966926-6-6z" fill="#ebeff0"/></g></g></svg>